<svg version="1.1" xmlns="http://www.w3.org/2000/svg" xmlns:xlink="http://www.w3.org/1999/xlink" role="img" width="346" height="90" viewbox="0 0 346 90"><title>YOLO5Face</title><desc>Generated by logo.svg, https://github.com/bubkoo/logo.svg</desc><path fill="#2b68a7" d="M7.34 70.35L7.91 67.66L9.38 67.66Q11.50 67.66 13.19 66.96Q14.89 66.26 15.53 63.38L18.02 51.60L10.60 30.74Q9.96 28.88 9.29 28.11Q8.62 27.34 6.76 27.34L5.93 27.34L6.50 24.66L23.78 24.66L23.21 27.34L20.01 27.34Q17.38 27.34 17.38 29.07Q17.38 29.90 17.61 30.80Q17.83 31.70 18.22 32.78L21.10 41.36Q21.74 43.34 22.25 45.39Q22.76 47.44 22.82 49.04Q23.59 47.70 24.74 46.16Q25.90 44.62 27.62 42.32L33.70 34.19Q34.92 32.59 35.50 31.31Q36.07 30.03 36.07 29.01Q36.07 28.11 35.40 27.73Q34.73 27.34 33 27.34L30.63 27.34L31.21 24.66L47.02 24.66L46.44 27.34L45.22 27.34Q43.75 27.34 42.47 28.56Q41.19 29.78 39.40 32.21L24.49 51.73L21.99 63.31Q21.74 64.34 21.74 65.10Q21.74 66.77 23.02 67.22Q24.30 67.66 26.34 67.66L27.82 67.66L27.24 70.35L7.34 70.35ZM59.18 71.06Q54.44 71.06 50.63 69.04Q46.82 67.02 44.62 63.06Q42.41 59.09 42.41 53.33Q42.41 49.62 43.43 45.58Q44.46 41.55 46.54 37.71Q48.62 33.87 51.69 30.77Q54.76 27.66 58.82 25.81Q62.89 23.95 68.01 23.95Q72.42 23.95 76.20 25.81Q79.98 27.66 82.28 31.54Q84.58 35.41 84.58 41.55Q84.58 45.07 83.59 49.10Q82.60 53.14 80.58 57.01Q78.57 60.88 75.53 64.08Q72.49 67.28 68.39 69.17Q64.30 71.06 59.18 71.06M59.56 67.54Q63.27 67.54 66.18 65.68Q69.10 63.82 71.24 60.78Q73.38 57.74 74.79 54.06Q76.20 50.38 76.87 46.67Q77.54 42.96 77.54 39.82Q77.54 33.36 74.70 30.38Q71.85 27.41 67.50 27.41Q63.78 27.41 60.84 29.26Q57.90 31.12 55.75 34.16Q53.61 37.20 52.20 40.88Q50.79 44.56 50.09 48.27Q49.38 51.98 49.38 55.12Q49.38 59.47 50.73 62.22Q52.07 64.98 54.41 66.26Q56.74 67.54 59.56 67.54ZM85.29 70.35L85.86 67.66L86.70 67.66Q88.81 67.66 90.50 66.86Q92.20 66.06 92.84 63.06L99.50 31.70Q99.75 30.67 99.75 29.90Q99.75 28.24 98.47 27.79Q97.19 27.34 95.14 27.34L94.31 27.34L94.89 24.66L113.51 24.66L112.94 27.34L112.10 27.34Q109.99 27.34 108.30 28.08Q106.60 28.82 105.96 31.70L98.41 67.15L111.02 67.15Q113.96 67.15 115.56 65.30Q117.16 63.44 117.86 61.39L119.53 56.59L122.86 56.59L119.53 70.35L85.29 70.35ZM146.54 71.06Q141.80 71.06 137.99 69.04Q134.18 67.02 131.98 63.06Q129.77 59.09 129.77 53.33Q129.77 49.62 130.79 45.58Q131.82 41.55 133.90 37.71Q135.98 33.87 139.05 30.77Q142.12 27.66 146.18 25.81Q150.25 23.95 155.37 23.95Q159.78 23.95 163.56 25.81Q167.34 27.66 169.64 31.54Q171.94 35.41 171.94 41.55Q171.94 45.07 170.95 49.10Q169.96 53.14 167.94 57.01Q165.93 60.88 162.89 64.08Q159.85 67.28 155.75 69.17Q151.66 71.06 146.54 71.06M146.92 67.54Q150.63 67.54 153.54 65.68Q156.46 63.82 158.60 60.78Q160.74 57.74 162.15 54.06Q163.56 50.38 164.23 46.67Q164.90 42.96 164.90 39.82Q164.90 33.36 162.06 30.38Q159.21 27.41 154.86 27.41Q151.14 27.41 148.20 29.26Q145.26 31.12 143.11 34.16Q140.97 37.20 139.56 40.88Q138.15 44.56 137.45 48.27Q136.74 51.98 136.74 55.12Q136.74 59.47 138.09 62.22Q139.43 64.98 141.77 66.26Q144.10 67.54 146.92 67.54ZM185.64 70.99Q179.43 70.99 176.94 69.10Q174.44 67.22 174.44 64.59Q174.44 62.80 175.59 61.71Q176.74 60.62 179.24 60.62Q179.30 62.29 179.88 63.86Q180.46 65.42 181.96 66.45Q183.46 67.47 186.22 67.47Q191.08 67.47 194.12 64.40Q197.16 61.33 197.16 55.25Q197.16 50.90 194.82 48.72Q192.49 46.54 188.97 46.54Q186.54 46.54 184.94 46.99Q183.34 47.44 181.99 47.95L179.82 47.50L186.66 24.66L208.04 24.66L206.31 34.32L203.62 34.32Q203.69 33.49 203.75 32.59Q203.82 31.70 203.82 31.31Q203.82 30.67 203.21 30.22Q202.60 29.78 200.87 29.78L188.46 29.78L184.23 44.05Q185.32 43.73 186.76 43.38Q188.20 43.02 190.38 43.02Q196.52 43.02 200.17 46.06Q203.82 49.10 203.82 54.80Q203.82 59.41 201.64 63.09Q199.46 66.77 195.40 68.88Q191.34 70.99 185.64 70.99ZM208.36 70.35L208.87 67.66L209.70 67.66Q211.82 67.66 213.51 66.93Q215.21 66.19 215.91 63.38L222.63 31.70Q222.89 30.67 222.89 29.90Q222.89 28.24 221.61 27.79Q220.33 27.34 218.28 27.34L217.45 27.34L218.02 24.66L250.28 24.66L248.23 35.86L244.90 35.86Q245.03 34.77 245.13 33.58Q245.22 32.40 245.22 32.14Q245.22 30.29 244.17 29.07Q243.11 27.86 240.42 27.86L229.93 27.86L225.96 46.35L241.38 46.35L240.74 49.49L225.32 49.49L222.44 63.06Q222.25 63.95 222.25 64.66Q222.25 66.64 223.53 67.15Q224.81 67.66 226.66 67.66L228.78 67.66L228.26 70.35L208.36 70.35ZM255.91 70.99Q253.10 70.99 251.24 69.46Q249.38 67.92 248.52 65.26Q247.66 62.61 247.66 59.28Q247.66 56.27 248.46 52.98Q249.26 49.68 250.86 46.58Q252.46 43.47 254.76 40.94Q257.06 38.42 260.07 36.91Q263.08 35.41 266.73 35.41Q269.03 35.41 270.98 36.05Q272.94 36.69 274.22 37.71L277.03 36.11L279.08 36.11L274.73 56.59Q274.60 57.30 274.34 58.64Q274.09 59.98 273.93 61.39Q273.77 62.80 273.77 63.70Q273.77 66.96 275.88 66.96Q276.90 66.96 278.09 66.48Q279.27 66 280.49 65.30L281.64 67.15Q280.74 67.98 279.21 68.88Q277.67 69.78 275.94 70.38Q274.22 70.99 272.62 70.99Q270.31 70.99 268.97 69.58Q267.62 68.18 267.62 65.68Q267.62 64.40 267.78 63.34Q267.94 62.29 268.26 60.69L267.88 60.69Q265.64 65.62 262.66 68.30Q259.69 70.99 255.91 70.99M258.22 66.96Q259.88 66.96 261.64 65.68Q263.40 64.40 264.97 62.22Q266.54 60.05 267.75 57.36Q268.97 54.67 269.54 51.92L271.91 40.59Q271.21 39.44 269.86 38.86Q268.52 38.29 267.05 38.29Q264.49 38.29 262.44 39.73Q260.39 41.17 258.86 43.54Q257.32 45.90 256.26 48.72Q255.21 51.54 254.70 54.38Q254.18 57.23 254.18 59.54Q254.18 63.50 255.34 65.23Q256.49 66.96 258.22 66.96ZM297.19 70.99Q293.74 70.99 290.92 69.52Q288.10 68.05 286.41 65.14Q284.71 62.22 284.71 57.74Q284.71 54.22 285.93 50.32Q287.14 46.42 289.58 43.02Q292.01 39.63 295.56 37.52Q299.11 35.41 303.78 35.41Q308.58 35.41 310.86 37.30Q313.13 39.18 313.13 41.55Q313.13 43.34 311.66 44.69Q310.18 46.03 307.43 46.03Q307.43 42.96 306.25 40.72Q305.06 38.48 302.50 38.48Q300.46 38.48 298.73 39.86Q297 41.23 295.62 43.44Q294.25 45.65 293.32 48.30Q292.39 50.96 291.88 53.58Q291.37 56.21 291.37 58.26Q291.37 62.42 293.16 64.69Q294.95 66.96 298.41 66.96Q301.80 66.96 304.04 65.49Q306.28 64.02 307.62 62.35Q308.26 62.80 308.26 63.95Q308.26 65.36 307.08 66.99Q305.90 68.62 303.46 69.81Q301.03 70.99 297.19 70.99ZM328.36 70.99Q324.90 70.99 322.09 69.52Q319.27 68.05 317.58 65.14Q315.88 62.22 315.88 57.74Q315.88 54.22 317.10 50.32Q318.31 46.42 320.74 43.02Q323.18 39.63 326.73 37.52Q330.28 35.41 334.95 35.41Q338.98 35.41 341.22 37.36Q343.46 39.31 343.46 42.77Q343.46 46.16 341.06 49.07Q338.66 51.98 334.47 53.78Q330.28 55.57 324.90 55.57L322.66 55.57Q322.60 56.27 322.57 56.94Q322.54 57.62 322.54 58.26Q322.54 62.42 324.33 64.69Q326.12 66.96 329.58 66.96Q332.65 66.96 335.05 65.49Q337.45 64.02 338.79 62.35Q339.43 62.80 339.43 63.95Q339.43 65.36 338.25 66.99Q337.06 68.62 334.63 69.81Q332.20 70.99 328.36 70.99M323.24 52.62L323.88 52.62Q327.59 52.62 330.54 51.38Q333.48 50.13 335.18 47.92Q336.87 45.71 336.87 42.77Q336.87 38.48 333.16 38.48Q331.30 38.48 329.74 39.73Q328.17 40.98 326.89 43.06Q325.61 45.14 324.68 47.63Q323.75 50.13 323.24 52.62Z"></path></svg>